<svg width="24" height="24" xmlns="http://www.w3.org/2000/svg">

 <g>
  <title>background</title>
  <rect fill="none" id="canvas_background" height="402" width="582" y="-1" x="-1"/>
 </g>
 <g>
  <title>Layer 1</title>
  <polyline stroke-width="2" stroke-miterlimit="10" stroke="#7f7f7f" points="  21.2,5.6 11.2,15.2 6.8,10.8 " id="Done__x2014__Displayed_on_the_left_side_of_a_contextual_action_bar__x28_CAB_x29__to_allow_the_user_to_dismiss_it._2_" fill-rule="evenodd" fill="none" clip-rule="evenodd"/>
  <path fill="#7f7f7f" id="svg_1" d="m19.9,13c-0.5,3.9 -3.9,7 -7.9,7c-4.4,0 -8,-3.6 -8,-8c0,-4.4 3.6,-8 8,-8c1.4,0 2.7,0.4 3.9,1l1.5,-1.5c-1.6,-0.9 -3.4,-1.5 -5.4,-1.5c-5.5,0 -10,4.5 -10,10c0,5.5 4.5,10 10,10c5.2,0 9.4,-3.9 9.9,-9l-2,0z"/>
 </g>
</svg>